<svg id="Layer_1" height="512" viewBox="0 0 512 512" width="512" xmlns="http://www.w3.org/2000/svg" data-name="Layer 1"><g fill="#0f3047"><path d="m53.784 349.027a145.777 145.777 0 0 1 -8.471-48.912 5 5 0 0 0 -4.99-5.01h-.01a5 5 0 0 0 -5 4.99 155.7 155.7 0 0 0 9.042 52.26 5 5 0 1 0 9.429-3.328z"/><path d="m165.28 450.848a5 5 0 0 0 -3.037 9.527c6.639 2.116 13.25 4.056 18.841 5.673a5 5 0 1 0 2.779-9.605c-5.526-1.6-12.057-3.515-18.583-5.595z"/><path d="m20.905 363.6a5 5 0 1 0 -9.813 1.924 155.774 155.774 0 0 0 19.027 49.507 5 5 0 0 0 8.6-5.1 145.774 145.774 0 0 1 -17.814-46.331z"/><path d="m87.343 472.38a5 5 0 0 0 2.735-9.189 166.414 166.414 0 0 1 -28.865-23.83 5 5 0 0 0 -7.2 6.944 176.451 176.451 0 0 0 30.6 25.264 4.974 4.974 0 0 0 2.73.811z"/><path d="m330.914 43.742a5 5 0 0 0 -2.781 9.606c5.542 1.6 12.084 3.523 18.584 5.595a5 5 0 1 0 3.037-9.527c-6.613-2.108-13.235-4.051-18.84-5.674z"/><path d="m420.46 39.682a5 5 0 0 0 1.46 6.918 166.406 166.406 0 0 1 28.865 23.83 5 5 0 0 0 7.2-6.944 176.444 176.444 0 0 0 -30.6-25.264 5 5 0 0 0 -6.925 1.46z"/><path d="m500.909 144.271a5.005 5.005 0 0 1 -3.95 5.87 5.306 5.306 0 0 1 -.97.09 5 5 0 0 1 -4.9-4.04 145.839 145.839 0 0 0 -17.81-46.33 5 5 0 1 1 8.6-5.1 155.831 155.831 0 0 1 19.03 49.51z"/><path d="m494.089 267.211a5 5 0 0 1 -.53 6.13c-21.71 23.39-40.39 40.08-71.1 55.76-13.6 21.84-32.46 37.38-54.61 45a77.229 77.229 0 0 1 -22.79 4.22c-.81.02-1.61.03-2.41.03-22.29 0-40.72-8.92-50.8-24.68-10.42-16.28-10.5-37.49-.22-58.2a122.084 122.084 0 0 1 15.86-23.53c-2.49-10.88-9.93-33.84-21.9-40.02a5 5 0 0 1 1.42-9.37c1.52-.27 33.95-5.76 51.67 8.98a76.481 76.481 0 0 0 4.19-9.63 93.862 93.862 0 0 0 -.58-65.85c-8.08-21.07-23.69-41.32-43.21-56.24-15.53 22.27-36.61 28.34-52.01 29.41a85.746 85.746 0 0 1 -31.86-3.83 5 5 0 0 1 -2.84-6.83c8.92-18.95 24-28.89 35.09-33.9a4.722 4.722 0 0 0 2.34-6.22c-12.11-26.54-1.98-48.44-1.55-49.36a5.019 5.019 0 0 1 5.58-2.74c27.29 5.93 39.17 23.84 44.33 37.82a74.769 74.769 0 0 1 3.19 11.41c36.13 10.49 66 20.78 93.22 47.34 32.82 32.02 51.6 75.15 51.51 118.31a184.373 184.373 0 0 1 -2.73 31.19c17.73 2.06 44.62-7.1 44.92-7.2a5 5 0 0 1 5.82 2zm-20.42 12.37c-11.6 2.55-26.52 4.58-37.46 1.64a5 5 0 0 1 -3.6-5.83 1.046 1.046 0 0 1 .04-.17 175.107 175.107 0 0 0 3.43-34.02c.08-40.48-17.59-80.98-48.5-111.14-24.53-23.94-51.95-33.98-84.86-43.67.08 1.46.11 2.72.11 3.74 22.04 16.16 39.75 38.75 48.8 62.34a103.76 103.76 0 0 1 .66 72.78 88.99 88.99 0 0 1 -8.34 17.22 4.993 4.993 0 0 1 -6.93 1.6 5.146 5.146 0 0 1 -1.36-1.27c-7.53-10.3-24.13-11.77-35.43-11.43 4.32 5.14 8.18 12.05 11.54 20.67a131.494 131.494 0 0 1 6.03 20.3 5.008 5.008 0 0 1 -1.28 4.39c-5.35 6.35-11.4 14.07-15.93 23.19-8.68 17.48-8.8 35.11-.32 48.36 8.51 13.3 24.73 20.61 44.5 20.04a66.555 66.555 0 0 0 19.83-3.68c20.53-7.06 37.32-21.08 49.9-41.69a5.071 5.071 0 0 1 2.17-2.13c24.07-12.13 40.52-24.921 57-41.24zm-180.84-188.44c.17-7.15-.77-43.52-36.92-53.96a52.828 52.828 0 0 0 2.99 37.11 14.73 14.73 0 0 1 -7.32 19.48 60.876 60.876 0 0 0 -27.32 23.74 78.8 78.8 0 0 0 22.47 1.71c19.84-1.47 35.35-10.921 46.1-28.08z"/><path d="m467.639 157.431a155.87 155.87 0 0 1 9.05 52.26 5.006 5.006 0 0 1 -5 4.99h-.01a4.983 4.983 0 0 1 -4.99-5.01 145.752 145.752 0 0 0 -8.48-48.91 5 5 0 0 1 9.43-3.33z"/><path d="m450.279 122.111a4.989 4.989 0 0 1 -1.5 6.91 4.93 4.93 0 0 1 -2.7.79 5.015 5.015 0 0 1 -4.21-2.29 165.7 165.7 0 0 0 -23.68-28.99c-13.14-12.82-27.87-22.48-46.35-30.4a5 5 0 1 1 3.94-9.19c19.65 8.42 35.35 18.73 49.39 32.44a175.657 175.657 0 0 1 25.11 30.73z"/></g><path d="m436.209 281.221c10.94 2.94 25.86.91 37.46-1.64-16.48 16.32-32.93 29.11-57 41.24a5.071 5.071 0 0 0 -2.17 2.13c-12.58 20.61-29.37 34.63-49.9 41.69a66.555 66.555 0 0 1 -19.83 3.68c-19.77.57-35.99-6.74-44.5-20.04-8.48-13.25-8.36-30.88.32-48.36 4.53-9.12 10.58-16.84 15.93-23.19a5.008 5.008 0 0 0 1.28-4.39 131.494 131.494 0 0 0 -6.03-20.3c-3.36-8.62-7.22-15.53-11.54-20.67 11.3-.34 27.9 1.13 35.43 11.43a5.146 5.146 0 0 0 1.36 1.27 4.993 4.993 0 0 0 6.93-1.6 88.99 88.99 0 0 0 8.34-17.22 103.76 103.76 0 0 0 -.66-72.78c-9.05-23.59-26.76-46.18-48.8-62.34 0-1.02-.03-2.28-.11-3.74 32.91 9.69 60.33 19.73 84.86 43.67 30.91 30.16 48.58 70.66 48.5 111.14a175.107 175.107 0 0 1 -3.43 34.02 1.046 1.046 0 0 0 -.04.17 5 5 0 0 0 3.6 5.83z" fill="#f92d40"/><path d="m383.359 305.171c17.78-30.94 23.1-62.26 15.81-93.1-5.66-23.91-18.77-47.49-38.99-70.09a5 5 0 0 1 7.46-6.67c34.68 38.78 67.06 100.59 24.39 174.84a4.993 4.993 0 0 1 -4.34 2.51 4.87 4.87 0 0 1 -2.48-.67 4.994 4.994 0 0 1 -1.85-6.82z" fill="#0f3047"/><circle cx="314.149" cy="317.481" fill="#0f3047" r="8"/><path d="m298.429 389.4a4.947 4.947 0 0 1 -.09 4.04c-8.92 18.95-24 28.9-35.09 33.9a4.722 4.722 0 0 0 -2.34 6.22c12.11 26.54 1.98 48.44 1.55 49.36a5.012 5.012 0 0 1 -4.52 2.85 5.45 5.45 0 0 1 -1.06-.11c-27.29-5.93-39.17-23.84-44.33-37.82a74.769 74.769 0 0 1 -3.19-11.41c-36.13-10.49-66-20.78-93.22-47.34-32.82-32.02-51.6-75.15-51.51-118.31a184.373 184.373 0 0 1 2.73-31.19c-17.73-2.06-44.62 7.1-44.92 7.2a5 5 0 0 1 -5.29-8.13c21.71-23.39 40.39-40.08 71.1-55.76 13.6-21.84 32.46-37.38 54.61-45a77.229 77.229 0 0 1 22.79-4.22c23.37-.66 42.77 8.32 53.21 24.65 10.42 16.28 10.5 37.49.22 58.2a122.084 122.084 0 0 1 -15.86 23.53c2.49 10.88 9.93 33.85 21.9 40.02a5 5 0 0 1 -1.42 9.37c-1.52.27-33.95 5.76-51.67-8.98a76.481 76.481 0 0 0 -4.19 9.63 93.862 93.862 0 0 0 .58 65.85c8.08 21.07 23.69 41.32 43.21 56.24 15.53-22.27 36.61-28.34 52.01-29.41a85.746 85.746 0 0 1 31.86 3.83 4.948 4.948 0 0 1 2.93 2.79zm-39.3 28.83a60.876 60.876 0 0 0 27.32-23.74 78.767 78.767 0 0 0 -22.47-1.71c-19.84 1.47-35.35 10.92-46.1 28.08-.17 7.15.77 43.52 36.92 53.96a52.828 52.828 0 0 0 -2.99-37.11 14.73 14.73 0 0 1 7.32-19.48zm-49.01-206.15c8.68-17.48 8.8-35.11.32-48.36-8.51-13.3-24.72-20.59-44.5-20.04a66.555 66.555 0 0 0 -19.83 3.68c-20.53 7.06-37.32 21.08-49.9 41.69a5.071 5.071 0 0 1 -2.17 2.13c-24.07 12.13-40.52 24.92-57 41.24 11.6-2.55 26.52-4.58 37.46-1.64a5 5 0 0 1 3.61 5.79c-.02.07-.03.14-.05.22a175.084 175.084 0 0 0 -3.43 34.01c-.08 40.48 17.59 80.98 48.5 111.14 24.53 23.94 51.95 33.98 84.86 43.67-.08-1.46-.11-2.72-.11-3.74-22.04-16.16-39.75-38.75-48.8-62.34a103.76 103.76 0 0 1 -.66-72.78 88.99 88.99 0 0 1 8.34-17.22 5 5 0 0 1 7.12-1.47 4.873 4.873 0 0 1 1.17 1.14c6.06 8.28 18.25 10.72 27.41 11.3 2.84.18 5.56.19 8.02.13-4.32-5.14-8.18-12.05-11.54-20.67a131.494 131.494 0 0 1 -6.03-20.3 5.008 5.008 0 0 1 1.28-4.39c5.35-6.349 11.4-14.07 15.93-23.189z" fill="#0f3047"/><path d="m255.909 37.181c36.15 10.44 37.09 46.81 36.92 53.96-10.75 17.16-26.26 26.61-46.1 28.08a78.8 78.8 0 0 1 -22.47-1.71 60.876 60.876 0 0 1 27.32-23.74 14.73 14.73 0 0 0 7.32-19.48 52.828 52.828 0 0 1 -2.99-37.11z" fill="#de3c44"/><path d="m286.449 394.491a60.876 60.876 0 0 1 -27.32 23.74 14.73 14.73 0 0 0 -7.32 19.48 52.828 52.828 0 0 1 2.99 37.11c-36.15-10.44-37.09-46.81-36.92-53.96 10.75-17.16 26.26-26.61 46.1-28.08a78.767 78.767 0 0 1 22.47 1.71z" fill="#de3c44"/><path d="m210.439 163.721c8.48 13.25 8.36 30.88-.32 48.36-4.53 9.12-10.58 16.84-15.93 23.19a5.008 5.008 0 0 0 -1.28 4.39 131.494 131.494 0 0 0 6.03 20.3c3.36 8.62 7.22 15.53 11.54 20.67-2.46.06-5.18.05-8.02-.13-9.16-.58-21.35-3.02-27.41-11.3a4.873 4.873 0 0 0 -1.17-1.14 5 5 0 0 0 -7.12 1.47 88.99 88.99 0 0 0 -8.34 17.22 103.76 103.76 0 0 0 .66 72.78c9.05 23.59 26.76 46.18 48.8 62.34 0 1.02.03 2.28.11 3.74-32.91-9.69-60.33-19.73-84.86-43.67-30.91-30.16-48.58-70.66-48.5-111.14a175.084 175.084 0 0 1 3.43-34.01c.02-.08.03-.15.05-.22a5 5 0 0 0 -3.61-5.79c-10.94-2.94-25.86-.91-37.46 1.64 16.48-16.32 32.93-29.11 57-41.24a5.071 5.071 0 0 0 2.17-2.13c12.58-20.61 29.37-34.63 49.9-41.69a66.555 66.555 0 0 1 19.83-3.68c19.78-.55 35.99 6.74 44.5 20.04z" fill="#f92d40"/><circle cx="195.869" cy="184.391" fill="#0f3047" r="8"/><path d="m156.909 376.871a5 5 0 0 1 -7.19 6.96c-23.44-24.21-39.07-49.8-46.47-76.07-9.92-35.2-4.73-70.83 15.43-105.91a5 5 0 0 1 8.67 4.98c-41.58 72.369-6.88 132.41 29.56 170.04z" fill="#0f3047"/><path d="m140.159 441.661a5 5 0 0 1 -1.97 9.6 4.9 4.9 0 0 1 -1.97-.41c-19.65-8.42-35.34-18.73-49.39-32.44a175.657 175.657 0 0 1 -25.11-30.73 5 5 0 0 1 8.41-5.41 166.079 166.079 0 0 0 23.68 28.98c13.14 12.83 27.87 22.49 46.35 30.41z" fill="#0f3047"/><path d="m201.879 417.2c-21.75-7.9-41.007-17.941-58.75-35.258-30.91-30.16-48.58-70.66-48.5-111.14a175.084 175.084 0 0 1 3.43-34.01c.02-.08.03-.15.049-.22a5 5 0 0 0 -3.609-5.79c-6.886-1.85-15.347-1.73-23.565-.753 1.224.2 2.42.446 3.565.753a5 5 0 0 1 3.609 5.79c-.019.07-.029.14-.049.22a175.084 175.084 0 0 0 -3.43 34.01c-.08 40.48 17.59 80.98 48.5 111.14 24.53 23.94 51.95 33.98 84.86 43.67-.08-1.46-.11-2.72-.11-3.74-2.043-1.498-4.035-3.072-6-4.672z" fill="#ad2a34"/><path d="m114.039 191.181a5.071 5.071 0 0 0 2.17-2.13c12.58-20.61 29.37-34.63 49.9-41.69a68.844 68.844 0 0 1 11.948-2.958 68.758 68.758 0 0 0 -12.117-.722 66.567 66.567 0 0 0 -19.831 3.68c-20.529 7.06-37.319 21.08-49.9 41.69a5.071 5.071 0 0 1 -2.17 2.13c-24.07 12.13-40.52 24.92-57 41.24a123.766 123.766 0 0 1 23.14-3.065 209.536 209.536 0 0 1 53.86-38.175z" fill="#ad2a34"/><path d="m227.618 408.668a65.525 65.525 0 0 0 -9.739 12.193c-.17 7.15.77 43.52 36.92 53.96a50.109 50.109 0 0 0 2.032-12.978c-28.302-13.09-29.213-53.175-29.213-53.175z" fill="#ad2a34"/><path d="m308.828 94.8c21.751 7.9 41.008 17.942 58.751 35.258 30.91 30.16 48.58 70.66 48.5 111.14a175.107 175.107 0 0 1 -3.43 34.02 1.167 1.167 0 0 0 -.041.17 5 5 0 0 0 3.6 5.83c6.885 1.851 15.346 1.731 23.564.753-1.223-.2-2.42-.445-3.564-.753a5 5 0 0 1 -3.6-5.83 1.167 1.167 0 0 1 .041-.17 175.107 175.107 0 0 0 3.43-34.02c.08-40.48-17.59-80.98-48.5-111.14-24.53-23.94-51.95-33.98-84.86-43.67.08 1.46.11 2.72.11 3.74 2.042 1.501 4.034 3.072 5.999 4.672z" fill="#ad2a34"/><path d="m450.528 282.647a209.545 209.545 0 0 1 -53.859 38.174 5.071 5.071 0 0 0 -2.17 2.13c-12.58 20.61-29.37 34.63-49.9 41.69a68.733 68.733 0 0 1 -11.97 2.963 68.36 68.36 0 0 0 12.14.717 66.561 66.561 0 0 0 19.83-3.68c20.53-7.06 37.32-21.08 49.9-41.69a5.071 5.071 0 0 1 2.17-2.13c24.07-12.13 40.52-24.92 57-41.24a123.7 123.7 0 0 1 -23.141 3.066z" fill="#ad2a34"/><path d="m255.909 37.181a49.285 49.285 0 0 0 -1.884 10.16c30.589 12.407 32.437 46.239 32.276 53-1.234 1.97 3.177-3.846 6.528-9.195.171-7.155-.77-43.525-36.92-53.965z" fill="#ad2a34"/></svg>