<svg height="512" viewBox="0 0 512 512" width="512" xmlns="http://www.w3.org/2000/svg"><g id="Filled_outline" data-name="Filled outline"><path d="m200 248h96v96h-96z" fill="#e0e0de"/><path d="m24 248h96v96h-96z" fill="#e0e0de"/><path d="m120 216h-80l-16 32h96z" fill="#f35244"/><path d="m200 216h80l16 32h-96z" fill="#f35244"/><path d="m120 184h80v160h-80z" fill="#e0e0de"/><circle cx="160" cy="224" fill="#c7c7c5" r="16"/><path d="m120 184 40-48 40 48z" fill="#f35244"/><path d="m120 312h80v32h-80z" fill="#ebebe9"/><path d="m120 264h80v48h-80z" fill="#348fd9"/><path d="m24 248h96v16h-96z" fill="#d6d6d4"/><path d="m200 248h96v16h-96z" fill="#d6d6d4"/><path d="m139 312h61v-48h-7z" fill="#3086cd"/><path d="m200 216h16v32h-16z" fill="#ea4a3b"/><path d="m160 136-8.403 10.084 26.249 37.916h22.154z" fill="#ea4a3b"/><path d="m160 96h40v32h-40z" fill="#348fd9"/><path d="m200 248h16v96h-16z" fill="#d6d6d4"/><path d="m200.14 328v-56a47.975 47.975 0 0 1 48-48h95.86a48 48 0 0 1 48 48v56z" fill="#3c5174"/><path d="m360 273.6v86.4h-128v-86.4l8-1.6 16-8v-56h80v56l16 8z" fill="#fec9a3"/><path d="m336 238.318v-30.318h-80v30.318a87.469 87.469 0 0 0 80 0z" fill="#feb784"/><path d="m488 453.76v.64a33.6 33.6 0 0 1 -64.62 12.92l-31.38-75.32v96h-192v-96l-31.38 75.32a33.615 33.615 0 0 1 -36.62 20.22c-16.28-2.71-28-17.17-28-33.67v-.16a33.579 33.579 0 0 1 1.89-11.1l45.9-131.14a43.6 43.6 0 0 1 32.59-28.35l15.62-3.12 40-8 16-8v7.21c0 22.43 18.35 41.21 40.78 40.78a40 40 0 0 0 39.22-39.99v-8l16 8 40 8 15.19 3.04a43.621 43.621 0 0 1 32.81 28.96l46.08 130.57a33.578 33.578 0 0 1 1.92 11.19z" fill="#f35244"/><path d="m488 453.76v.64a33.6 33.6 0 0 1 -64.62 12.92l-31.38-75.32v96h-160.29c79.61-37.48 146.86-86.55 203.39-186.11a43.391 43.391 0 0 1 4.9 10.11l46.08 130.57a33.578 33.578 0 0 1 1.92 11.19z" fill="#ea4a3b"/><path d="m133.41 363.98 62.17 38.64-26.96 64.7a33.6 33.6 0 0 1 -64.62-12.92v-.69a33.579 33.579 0 0 1 1.89-11.1z" fill="#feb784"/><path d="m488 453.76v.64a33.6 33.6 0 0 1 -64.62 12.92l-28.3-67.92 62.86-36.57 28.14 79.74a33.578 33.578 0 0 1 1.92 11.19z" fill="#feb784"/><path d="m368 112v48a72.006 72.006 0 0 1 -72 72 71.157 71.157 0 0 1 -9.85-.68h-.01a72.006 72.006 0 0 1 -62.14-71.32v-48a72 72 0 0 1 144 0z" fill="#fec9a3"/><path d="m368 112v48a72.006 72.006 0 0 1 -72 72 71.157 71.157 0 0 1 -9.85-.68 88 88 0 0 0 49.85-79.32v-48a87.688 87.688 0 0 0 -25.78-62.22c-.16-.16-.32-.32-.48-.47a72.04 72.04 0 0 1 58.26 70.69z" fill="#fec093"/><path d="m368 72v40l-24-32h-96l-24 32v-40a48 48 0 0 1 48-48h48a48 48 0 0 1 48 48z" fill="#95573a"/><path d="m216 112h8a0 0 0 0 1 0 0v48a0 0 0 0 1 0 0h-8a24 24 0 0 1 -24-24 24 24 0 0 1 24-24z" fill="#feb784"/><path d="m392 112h8a0 0 0 0 1 0 0v48a0 0 0 0 1 0 0h-8a24 24 0 0 1 -24-24 24 24 0 0 1 24-24z" fill="#feb784" transform="matrix(-1 0 0 -1 768 272)"/><path d="m200 280 40-8v216h-40z" fill="#49648e"/><path d="m392 280v208h-40v-216z" fill="#49648e"/><path d="m104 458.387a29.612 29.612 0 0 0 29.612 29.613h6.646a29.613 29.613 0 0 0 27.335-18.223l32.407-77.777h48v-64h-48l-89.511 111.889a29.607 29.607 0 0 0 -6.489 18.498z" fill="#fec9a3"/><path d="m344 328v64h48l32.407 77.777a29.613 29.613 0 0 0 27.335 18.223h6.646a29.612 29.612 0 0 0 29.612-29.612 29.607 29.607 0 0 0 -6.489-18.5l-89.511-111.888z" fill="#fec9a3"/><path d="m368 72v40l-24-32h-11.32a88.258 88.258 0 0 0 -47.98-56h35.3a48 48 0 0 1 48 48z" fill="#8f4d2e"/><path d="m48 272h16v16h-16z"/><path d="m80 272h16v16h-16z"/><path d="m48 304h16v16h-16z"/><path d="m80 304h16v16h-16z"/><circle cx="160" cy="224" r="16"/><path d="m259.938 120a12 12 0 1 0 11.983 12 12 12 0 0 0 -11.983-12z"/><path d="m331.617 120a12 12 0 1 0 11.983 12 12 12 0 0 0 -11.983-12z"/><path d="m288.743 168h-16.858v16h16.858a114.126 114.126 0 0 0 33.257-4.906l-4.658-15.307a98.176 98.176 0 0 1 -28.599 4.213z"/><path d="m493.629 439.909-46.063-130.509a51.707 51.707 0 0 0 -38.8-34.2l-8.766-1.758v-1.442a56.087 56.087 0 0 0 -47.513-55.357 79.837 79.837 0 0 0 23.113-48.643h.4a32 32 0 0 0 0-64v-32a56.063 56.063 0 0 0 -56-56h-48a56.063 56.063 0 0 0 -56 56v32a31.94 31.94 0 0 0 -8 1.013v-9.013a8 8 0 0 0 -8-8h-40a8 8 0 0 0 -8 8v37.1s-38.146 45.775-38.15 45.782a7.963 7.963 0 0 0 -1.85 5.118v24h-72a8 8 0 0 0 -7.155 4.422l-16 32a.508.508 0 0 0 -.017.051 7.95 7.95 0 0 0 -.828 3.527v96a8 8 0 0 0 8 8h105.125l-30.789 87.967c-5.107 14.59-2.979 32.478 7.742 44.012 19.079 20.524 57.956 15.149 68.9-11.125l17.022-40.854v56a8 8 0 0 0 8 8h192a8 8 0 0 0 8-8v-56l17.022 40.854c8.3 19.93 32.065 27.331 51.769 21.486 22.409-6.649 32.286-33.316 24.838-54.431zm-28.9-33.8-20.129-25.169 9.285-5.571zm-32.319-91.579c.016.044.03.088.046.133l15.991 45.307-13.937 8.362-34.51-43.138v-35.435l5.625 1.125a35.668 35.668 0 0 1 26.785 23.646zm-88.41 165.47h-96v-80a8 8 0 0 0 8-8v-64a8 8 0 0 0 -8-8v-43.056l.337-.168a49.518 49.518 0 0 0 14.426 29.49 47.215 47.215 0 0 0 33.255 13.734c.3 0 .607 0 .911-.008a48.276 48.276 0 0 0 46.826-43.169l.245.122v43.055a8 8 0 0 0 -8 8v64a8 8 0 0 0 8 8zm-128-312h.4a79.49 79.49 0 0 0 15.58 40h-23.98v-24a7.963 7.963 0 0 0 -1.85-5.114v-.007l-35.737-42.879h13.587a32.036 32.036 0 0 0 32 32zm80 72a80.364 80.364 0 0 0 32-6.672v38.672a32.155 32.155 0 0 1 -31.376 31.993 31.277 31.277 0 0 1 -22.655-9.148 33.332 33.332 0 0 1 -9.969-23.635v-37.89a78.912 78.912 0 0 0 22.848 6.158 81.353 81.353 0 0 0 9.152.522zm-128 32h24v1.44l-9.187 1.838a51.243 51.243 0 0 0 -14.813 5.472zm40-48h11.364a56.327 56.327 0 0 0 -11.364 8.979zm29.381 40.365-29.181 5.835a39.914 39.914 0 0 1 39.8-38.195v27.051zm-45.381-8.365h-64v-64h64zm-64 16h24v22.518a51.4 51.4 0 0 0 -5.763 9.482h-18.237zm9.924 103.292 9.465 5.666-20.352 25.442zm19.553-6.944-14.157-8.474 4.631-13.231 11.386-32.532a35.743 35.743 0 0 1 26.614-23.143l6.049-1.21v35.436zm50.663-81.818 23.86-4.772v38.242h-23.86zm151.86-4.771 24 4.8v33.441h-24zm23.955-11.527-29.336-5.867-10.619-5.309v-27.056a40.045 40.045 0 0 1 39.955 38.232zm-52.429-57.043a61.852 61.852 0 0 1 -13.731 7.062c-25.165 9.137-57.038.538-73.121-21.441a62.337 62.337 0 0 1 -9.695-20.827c-3.738-14.1-3.467-28.916-3.17-43.5l.286-14.114a20.811 20.811 0 0 1 .55-5.222 20.837 20.837 0 0 1 3.878-6.709l12.886-16.984a6.682 6.682 0 0 1 6.892-3.465h79.44a6.406 6.406 0 0 1 6.678 3.212l14.075 18.664a18.351 18.351 0 0 1 2.99 4.993 19.685 19.685 0 0 1 .524 7.1c-.739 18.744 2.319 37.966-2.82 56.006a64.642 64.642 0 0 1 -25.662 35.225zm60.474-77.189a16.019 16.019 0 0 1 -16 16v-32a16.019 16.019 0 0 1 16 16zm-160-64a40.045 40.045 0 0 1 40-40h48a40.045 40.045 0 0 1 40 40v16l-9.6-12.8a8 8 0 0 0 -6.4-3.2h-96a8 8 0 0 0 -6.4 3.2l-9.6 12.8zm-16 80a16 16 0 0 1 0-32zm-24-37.132a32.212 32.212 0 0 0 -3.695 5.132h-20.305v-16h24zm-32 33.632 22.92 27.5h-45.84zm-115.056 75.5h67.056v16h-75.056zm-12.944 32h80v80h-80zm96 80v-16h12.325l-5.6 16zm32.385 130.274c-9.05 21.726-48.385 17.475-48.385-7.886a21.694 21.694 0 0 1 4.736-13.5l87.109-108.888h36.155v48h-40a7.869 7.869 0 0 0 -7.207 4.5zm47.755 13.226v-79.5h23.86v80zm151.86.5v-80h24v80zm98.4.105c-10.658 1.387-22.166-2.743-26.608-13.405l-32.407-77.777a8 8 0 0 0 -7.385-4.923h-40v-48h36.155l87.109 108.887a21.3 21.3 0 0 1 .433 26.043c-4.124 5.514-10.612 8.306-17.297 9.175z"/><path d="m16 376h56v16h-56z"/><path d="m40 416h48v16h-48z"/><path d="m16 464h16v16h-16z"/><path d="m48 464h32v16h-32z"/><path d="m472 336h24v16h-24z"/><path d="m456 288h40v16h-40z"/></g></svg>