<svg height="480pt" viewBox="-31 0 479 480" width="480pt" xmlns="http://www.w3.org/2000/svg"><path d="m376.5 88h-336c-17.671875 0-32 14.328125-32 32v192h400v-192c0-17.671875-14.328125-32-32-32zm0 0" fill="#5aaae7"/><path d="m232.5 40.078125v-16.078125c.027344-8.824219 7.175781-15.972656 16-16h8c8.824219.027344 15.972656 7.175781 16 16v11.359375c-13.203125-5.804687-28.511719-3.996094-40 4.71875zm0 0" fill="#00b39d"/><path d="m144.5 24c.027344-8.824219 7.175781-15.972656 16-16h8c8.824219.027344 15.972656 7.175781 16 16v16.078125c-11.488281-8.714844-26.796875-10.523437-40-4.71875zm0 0" fill="#00b39d"/><path d="m223.21875 49.761719c-2.976562-6.992188-10.457031-10.921875-17.902344-9.410157-7.445312 1.511719-12.800781 8.050782-12.816406 15.648438v80c0-8.835938 7.164062-16 16-16s16 7.164062 16 16v-80c-.007812-2.144531-.441406-4.265625-1.28125-6.238281zm0 0" fill="#00b39d"/><g fill="#009986"><path d="m288.5 152c0 8.835938-7.164062 16-16 16s-16-7.164062-16-16 7.164062-16 16-16 16 7.164062 16 16zm0 0"/><path d="m224.5 136c0 8.835938-7.164062 16-16 16s-16-7.164062-16-16 7.164062-16 16-16 16 7.164062 16 16zm0 0"/><path d="m160.5 152c0 8.835938-7.164062 16-16 16s-16-7.164062-16-16 7.164062-16 16-16 16 7.164062 16 16zm0 0"/><path d="m184.5 40.078125c-11.488281-8.714844-26.796875-10.523437-40-4.71875-4.101562 1.757813-7.867188 4.222656-11.121094 7.28125-3.140625 2.960937-5.363281 6.765625-6.398437 10.960937l-11.121094 34.398438-13.039063 40.160156c10.796876-18.90625 32.96875-28.175781 54.011719-22.582031s35.683594 24.648437 35.667969 46.421875v-96c.007812-2.144531.441406-4.265625 1.28125-6.238281-2.519531-3.734375-5.660156-7.007813-9.28125-9.683594zm0 0"/><path d="m301.140625 88-11.121094-34.398438c-1.035156-4.195312-3.257812-8-6.398437-10.960937-3.253906-3.058594-7.019532-5.523437-11.121094-7.28125-17.757812-7.605469-38.414062-1.570313-49.28125 14.402344.839844 1.972656 1.273438 4.09375 1.28125 6.238281v96c-.015625-21.773438 14.625-40.828125 35.667969-46.421875s43.214843 3.675781 54.011719 22.582031zm0 0"/></g><path d="m314.179688 128.160156c10.78125 18.839844 7.578124 42.570313-7.8125 57.875-15.394532 15.304688-39.140626 18.378906-57.921876 7.492188-18.777343-10.886719-27.914062-33.019532-22.28125-53.980469 5.628907-20.964844 24.628907-35.539063 46.335938-35.546875 17.234375-.058594 33.164062 9.175781 41.679688 24.160156zm-25.679688 23.839844c0-8.835938-7.164062-16-16-16s-16 7.164062-16 16 7.164062 16 16 16c8.824219-.027344 15.972656-7.175781 16-16zm0 0" fill="#00ccb3"/><path d="m144.5 104c21.679688.019531 40.648438 14.585938 46.265625 35.523438 5.621094 20.9375-3.507813 43.042968-22.265625 53.914062-18.753906 10.871094-42.472656 7.808594-57.847656-7.472656-15.378906-15.285156-18.589844-38.980469-7.832032-57.804688 8.554688-14.949218 24.457032-24.167968 41.679688-24.160156zm16 48c0-8.835938-7.164062-16-16-16s-16 7.164062-16 16 7.164062 16 16 16c8.824219-.027344 15.972656-7.175781 16-16zm0 0" fill="#00ccb3"/><path d="m304.5 448v16c0 4.417969-3.582031 8-8 8h-176c-4.417969 0-8-3.582031-8-8v-16c0-4.417969 3.582031-8 8-8h176c4.417969 0 8 3.582031 8 8zm0 0" fill="#787680"/><path d="m264.5 376 8 64h-128l8-64zm0 0" fill="#898890"/><path d="m408.5 312v32c0 17.671875-14.328125 32-32 32h-336c-17.671875 0-32-14.328125-32-32v-32zm0 0" fill="#acabb1"/><path d="m376.5 80h-48v16h48c13.253906 0 24 10.746094 24 24v184h-384v-184c0-13.253906 10.746094-24 24-24h48v-16h-48c-22.082031.027344-39.972656 17.917969-40 40v224c.027344 22.082031 17.917969 39.972656 40 40h102.9375l-6 48h-16.9375c-8.835938 0-16 7.164062-16 16v16c0 8.835938 7.164062 16 16 16h176c8.835938 0 16-7.164062 16-16v-16c0-8.835938-7.164062-16-16-16h-16.9375l-6-48h102.9375c22.082031-.027344 39.972656-17.917969 40-40v-224c-.027344-22.082031-17.917969-39.972656-40-40zm-80 384h-176v-16h176zm-33.0625-32h-109.875l6-48h97.875zm113.0625-64h-336c-13.253906 0-24-10.746094-24-24v-24h384v24c0 13.253906-10.746094 24-24 24zm0 0"/><path d="m352.5 336h16v16h-16zm0 0"/><path d="m272.5 128c-13.253906 0-24 10.746094-24 24s10.746094 24 24 24 24-10.746094 24-24-10.746094-24-24-24zm0 32c-4.417969 0-8-3.582031-8-8s3.582031-8 8-8 8 3.582031 8 8-3.582031 8-8 8zm0 0"/><path d="m144.5 128c-13.253906 0-24 10.746094-24 24s10.746094 24 24 24 24-10.746094 24-24-10.746094-24-24-24zm0 32c-4.417969 0-8-3.582031-8-8s3.582031-8 8-8 8 3.582031 8 8-3.582031 8-8 8zm0 0"/><path d="m88.5 152c.113281 29.601562 23.242188 54.003906 52.792969 55.695312 29.554687 1.695313 55.320312-19.902343 58.816406-49.296874 5.394531 2.140624 11.402344 2.140624 16.796875 0 2.542969 22.492187 18.375 41.242187 40.121094 47.515624 21.746094 6.277344 45.132812-1.15625 59.265625-18.835937 14.132812-17.679687 16.234375-42.125 5.328125-61.957031l-23.890625-73.601563c-1.433594-5.660156-4.449219-10.792969-8.695313-14.800781-2.613281-2.351562-5.476562-4.417969-8.535156-6.152344v-6.566406c0-13.253906-10.746094-24-24-24h-8c-13.253906 0-24 10.746094-24 24v12.214844c-.390625.351562-.734375.746094-1.121094 1.105468-8.652344-7.09375-21.105468-7.09375-29.757812 0-.386719-.359374-.730469-.753906-1.121094-1.105468v-12.214844c0-13.253906-10.746094-24-24-24h-8c-13.253906 0-24 10.746094-24 24v6.574219c-3.0625 1.730469-5.925781 3.792969-8.535156 6.144531-4.152344 3.902344-7.121094 8.890625-8.570313 14.402344l-24 74c-4.53125 8.230468-6.90625 17.480468-6.894531 26.878906zm56 40c-22.089844 0-40-17.910156-40-40s17.910156-40 40-40 40 17.910156 40 40c-.027344 22.082031-17.917969 39.972656-40 40zm64-48c-4.417969 0-8-3.582031-8-8s3.582031-8 8-8 8 3.582031 8 8-3.582031 8-8 8zm64 48c-22.089844 0-40-17.910156-40-40s17.910156-40 40-40 40 17.910156 40 40c-.027344 22.082031-17.917969 39.972656-40 40zm24.726562-90.167969c-21.679687-10.792969-47.855468-6.324219-64.726562 11.054688v-56.886719c-.007812-1.550781-.164062-3.09375-.464844-4.617188 5.628906-6.675781 13.746094-10.761718 22.460938-11.308593 8.71875-.546875 17.28125 2.492187 23.699218 8.414062 2.089844 2.070313 3.542969 4.695313 4.183594 7.566407zm-56.726562-77.832031c0-4.417969 3.582031-8 8-8h8c4.417969 0 8 3.582031 8 8v.742188c-2.640625-.46875-5.316406-.714844-8-.742188-5.453125.019531-10.863281.964844-16 2.800781zm-32 24c4.417969 0 8 3.582031 8 8v57.472656c-5.152344-1.964844-10.847656-1.964844-16 0v-57.472656c0-4.417969 3.582031-8 8-8zm-56-24c0-4.417969 3.582031-8 8-8h8c4.417969 0 8 3.582031 8 8v2.800781c-5.136719-1.835937-10.546875-2.78125-16-2.800781-2.683594.027344-5.359375.273438-8 .742188zm-17.769531 31.648438c.65625-2.722657 2.066406-5.203126 4.074219-7.152344 6.417968-5.921875 14.980468-8.964844 23.695312-8.417969 8.71875.546875 16.832031 4.628906 22.464844 11.304687-.300782 1.523438-.457032 3.066407-.464844 4.617188v56.886719c-16.871094-17.382813-43.054688-21.851563-64.734375-11.046875zm0 0"/><path d="m216.5 240h16v16h-16zm0 0"/><path d="m248.5 240h16v16h-16zm0 0"/><path d="m184.5 240h16v16h-16zm0 0"/><path d="m152.5 240h16v16h-16zm0 0"/></svg>