<svg id="Capa_1" enable-background="new 0 0 512 512" height="512" viewBox="0 0 512 512" width="512" xmlns="http://www.w3.org/2000/svg"><g><path d="m504.5 402.75v101.75h-30l-60-50.875 60-50.875z" fill="#74dce2"/><path d="m474.5 402.75v101.75h-30l-60-50.875 60-50.875z" fill="#adf2f5"/><path d="m504.5 271v101.75h-30l-60-50.875 60-50.875z" fill="#e00016"/><path d="m474.5 271v101.75h-30l-60-50.875 60-50.875z" fill="#ff3a33"/><path d="m504.5 139.25v101.75h-30l-60-50.875 60-50.875z" fill="#736dd9"/><path d="m474.5 139.25v101.75h-30l-60-50.875 60-50.875z" fill="#928bff"/><path d="m67.5 402.75 60 50.875-60 50.875h-60v-101.75z" fill="#928bff"/><path d="m264.45 402.75-50.88 50.87 50.88 50.88h-196.95v-101.75z" fill="#ff3a33"/><path d="m444.5 139.25v101.75h-196.95l50.88-50.88-50.88-50.87z" fill="#ff3a33"/><path d="m67.5 139.25 60 50.875-60 50.875h-60v-101.75z" fill="#adf2f5"/><path d="m444.5 402.75v101.75h-137.62l-50.88-50.88 50.88-50.87z" fill="#83b3f1"/><path d="m256 190.12-50.88 50.88h-137.62v-101.75h137.62z" fill="#83b3f1"/><path d="m67.5 7.5 60 50.875-60 50.875h-60v-101.75z" fill="#ff3a33"/><path d="m444.5 271v101.75h-137.62c-28.1 0-50.88-22.78-50.88-50.88 0-28.09 22.78-50.87 50.88-50.87z" fill="#adf2f5"/><path d="m205.12 7.5c28.1 0 50.88 22.78 50.88 50.88 0 28.09-22.78 50.87-50.88 50.87h-137.62v-101.75z" fill="#adf2f5"/><path d="m504.5 7.5v101.75h-30l-60-50.875 60-50.875z" fill="#928bff"/><path d="m67.5 271 60 50.875-60 50.875h-60v-101.75z" fill="#736dd9"/><path d="m474.5 7.5v101.75h-30l-60-50.875 60-50.875z" fill="#83b3f1"/><path d="m67.5 271h176.57c-11.29 13.91-18.07 31.61-18.07 50.88 0 19.26 6.78 36.96 18.07 50.87h-176.57z" fill="#fef77d"/><path d="m444.5 7.5v101.75h-176.57c11.29-13.91 18.07-31.61 18.07-50.87 0-19.27-6.78-36.97-18.07-50.88z" fill="#fef77d"/><path d="m504.5 0h-236.567c-2.893 0-5.527 1.664-6.771 4.275-1.243 2.611-.875 5.705.948 7.951 10.569 13.024 16.39 29.414 16.39 46.149s-5.821 33.125-16.391 46.149c-1.823 2.246-2.191 5.34-.948 7.951 1.244 2.611 3.879 4.275 6.771 4.275h236.568c4.143 0 7.5-3.358 7.5-7.5v-101.75c0-4.142-3.357-7.5-7.5-7.5zm-222.425 15h154.925v86.75h-154.925c7.432-13.176 11.425-28.157 11.425-43.375s-3.993-30.199-11.425-43.375zm214.925 86.75h-45v-86.75h45z"/><path d="m7.5 116.75h197.625c32.188 0 58.375-26.187 58.375-58.375s-26.187-58.375-58.375-58.375h-197.625c-4.143 0-7.5 3.358-7.5 7.5v101.75c0 4.142 3.357 7.5 7.5 7.5zm241-58.375c0 23.917-19.458 43.375-43.375 43.375h-130.125v-86.75h130.125c23.917 0 43.375 19.458 43.375 43.375zm-233.5-43.375h45v86.75h-45z"/><path d="m7.5 380.25h236.567c2.893 0 5.527-1.664 6.771-4.275 1.243-2.611.875-5.705-.948-7.951-10.569-13.024-16.39-29.414-16.39-46.149s5.821-33.125 16.391-46.149c1.823-2.246 2.191-5.34.948-7.951-1.244-2.611-3.879-4.275-6.771-4.275h-236.568c-4.143 0-7.5 3.358-7.5 7.5v101.75c0 4.142 3.357 7.5 7.5 7.5zm222.425-15h-154.925v-86.75h154.925c-7.432 13.176-11.425 28.157-11.425 43.375s3.993 30.199 11.425 43.375zm-214.925-86.75h45v86.75h-45z"/><path d="m504.5 263.5h-197.625c-32.188 0-58.375 26.187-58.375 58.375s26.187 58.375 58.375 58.375h197.625c4.143 0 7.5-3.358 7.5-7.5v-101.75c0-4.142-3.357-7.5-7.5-7.5zm-241 58.375c0-23.917 19.458-43.375 43.375-43.375h130.125v86.75h-130.125c-23.917 0-43.375-19.458-43.375-43.375zm233.5 43.375h-45v-86.75h45z"/><path d="m224.18 453.625 45.572-45.572c2.145-2.145 2.786-5.371 1.625-8.173-1.16-2.803-3.896-4.63-6.929-4.63h-256.948c-4.143 0-7.5 3.358-7.5 7.5v101.75c0 4.142 3.357 7.5 7.5 7.5h256.948c3.033 0 5.769-1.827 6.929-4.63 1.161-2.803.52-6.028-1.625-8.173zm-209.18-43.375h45v86.75h-45zm60 86.75v-86.75h171.342l-38.072 38.072c-2.929 2.929-2.929 7.678 0 10.606l38.072 38.072z"/><path d="m504.5 395.25h-197.625c-1.989 0-3.896.79-5.304 2.197l-50.875 50.875c-2.929 2.929-2.929 7.678 0 10.606l50.875 50.875c1.407 1.407 3.314 2.197 5.304 2.197h197.625c4.143 0 7.5-3.358 7.5-7.5v-101.75c0-4.142-3.357-7.5-7.5-7.5zm-237.894 58.375 43.375-43.375h127.019v86.75h-127.019zm230.394 43.375h-45v-86.75h45z"/><path d="m504.5 131.75h-256.948c-3.033 0-5.769 1.827-6.929 4.63-1.161 2.803-.52 6.028 1.625 8.173l45.572 45.572-45.572 45.572c-2.145 2.145-2.786 5.371-1.625 8.173 1.16 2.803 3.896 4.63 6.929 4.63h256.948c4.143 0 7.5-3.358 7.5-7.5v-101.75c0-4.142-3.357-7.5-7.5-7.5zm-200.77 63.678c2.929-2.929 2.929-7.678 0-10.606l-38.072-38.072h171.342v86.75h-171.342zm193.27 38.072h-45v-86.75h45z"/><path d="m7.5 248.5h60c4.143 0 7.5-3.358 7.5-7.5v-94.25h127.019l43.375 43.375-43.375 43.375h-104.519c-4.143 0-7.5 3.358-7.5 7.5s3.357 7.5 7.5 7.5h107.625c1.989 0 3.896-.79 5.304-2.197l50.875-50.875c2.929-2.929 2.929-7.678 0-10.606l-50.875-50.875c-1.407-1.407-3.314-2.197-5.304-2.197h-197.625c-4.143 0-7.5 3.358-7.5 7.5v101.75c0 4.142 3.357 7.5 7.5 7.5zm7.5-101.75h45v86.75h-45z"/></g></svg>