<svg id="Layer_1" enable-background="new 0 0 512 512" height="512" viewBox="0 0 512 512" width="512" xmlns="http://www.w3.org/2000/svg"><g><path d="m10 10h110v60h-110z" fill="#fff"/><path d="m392 10h110v60h-110z" fill="#fff"/><path d="m156 442h200v60h-200z" fill="#60a4ff"/><path d="m120 70v110c0 16.569 13.431 30 30 30h212c16.569 0 30-13.431 30-30v-110h110v150c0 60.751-49.249 110-110 110h-272c-60.751 0-110-49.249-110-110v-150z" fill="#ff5a58"/><path d="m356 215c0-13.807-11.193-25-25-25-13.807 0-25 11.193-25 25 0-13.807-11.193-30-25-30-13.807 0-25 11.193-25 25 0-13.807-11.193-25-25-25-13.807 0-25 11.193-25 25 0-13.807-11.193-25-25-25-13.807 0-25 11.193-25 25v120h-60c6.54 30.216 27.687 49.345 60 60l14.999 52h150l30.975-63.719c2.649-5.449 4.025-11.429 4.025-17.488v-145.793z" fill="#ffbe90"/><g><path d="m502 0h-110c-5.523 0-10 4.478-10 10v170c-.02 10.807-8.668 19.626-19.398 19.968-5.634-11.797-17.681-19.968-31.602-19.968-9.2 0-17.583 3.568-23.836 9.393-6.299-8.426-15.516-14.393-26.164-14.393-9.784 0-18.643 4.035-25 10.528-6.357-6.493-15.216-10.528-25-10.528s-18.643 4.035-25 10.528c-6.357-6.493-15.216-10.528-25-10.528-15.76 0-29.117 10.473-33.486 24.824-9.84-1.248-17.495-9.658-17.514-19.824v-170c0-5.522-4.477-10-10-10h-110c-5.523 0-10 4.478-10 10v210c0 52.578 36.462 100.963 87.006 115.405 7.427 29.229 27.856 50.171 60.818 62.331l9.883 34.264h-1.707c-5.523 0-10 4.478-10 10v60c0 5.522 4.477 10 10 10h200c5.523 0 10-4.478 10-10v-60c0-5.522-4.477-10-10-10h-19.021l23.989-49.348c3.292-6.771 5.032-14.33 5.032-21.859v-20.793h26.03c25.158 0 50.172-8.114 70.508-22.908 4.425-3.219 5.427-9.557 2.203-13.971-3.238-4.433-9.544-5.409-13.97-2.211-17.161 12.48-37.481 19.08-58.771 19.09h-26v-100.201c9.176-.904 17.68-4.91 24.28-11.519 7.56-7.551 11.72-17.591 11.72-28.28v-100h90v140c0 4.149-.26 8.34-.77 12.439-.67 5.48 3.23 10.48 8.7 11.16.41.05.83.07 1.24.07 5.03 0 9.29-3.771 9.91-8.771.61-4.92.92-9.93.92-14.899v-209.999c0-5.522-4.477-10-10-10zm-482 20h90v40h-90zm29.29 270.71c-18.88-18.9-29.29-44.01-29.29-70.71v-140h90v100c0 20.27 15.82 37.81 36 39.803v100.197h-26c-26.7-.01-51.81-10.41-70.71-29.29zm296.71 161.29v40h-180v-40zm0-91.207c0 4.517-1.044 9.053-3.019 13.115l-28.24 58.092h-136.219l-12.914-44.771c-.916-3.174-3.34-5.691-6.477-6.726-25.297-8.341-41.628-21.653-49.567-40.503h46.436c5.523 0 10-4.478 10-10v-120c0-8.271 6.729-15 15-15s15 6.729 15 15v65c0 5.522 4.477 10 10 10s10-4.478 10-10v-65c0-8.271 6.729-15 15-15s15 6.729 15 15v65c0 5.522 4.477 10 10 10s10-4.478 10-10v-65c0-8.271 6.729-15 15-15 7.149 0 15 10.467 15 20v60c0 5.522 4.477 10 10 10s10-4.478 10-10v-60c0-8.271 6.729-15 15-15s15 6.729 15 15zm146-300.793h-90v-40h90z"/><circle cx="487" cy="276" r="10"/></g></g></svg>